<svg width="20" height="20" viewBox="0 0 20 20" fill="none" xmlns="http://www.w3.org/2000/svg">
<path d="M19.8575 10.0269L10.475 0.199382C10.3569 0.0762573 10.1944 0.00750732 10.0244 0.00750732C9.85438 0.00750732 9.69126 0.0768823 9.57313 0.199382L0.142507 10.0269C-0.0968681 10.2756 -0.0881181 10.6713 0.160632 10.9106C0.410007 11.1494 0.805007 11.1425 1.04438 10.8925L1.88438 10.0169V19.3688C1.88438 19.7138 2.16438 19.9938 2.50938 19.9938H6.87563C7.22001 19.9938 7.49938 19.7156 7.50063 19.3706L7.52001 13.1275H12.5006V19.3688C12.5006 19.7138 12.7806 19.9938 13.1256 19.9938H17.49C17.835 19.9938 18.115 19.7138 18.115 19.3688V10.0138L18.9544 10.8931C19.0775 11.0206 19.2413 11.0856 19.4056 11.0856C19.5613 11.0856 19.7175 11.0281 19.8381 10.9113C20.0869 10.6725 20.095 10.2769 19.8563 10.0281L19.8575 10.0269ZM16.8656 8.88313V18.7431H13.7513V12.5019C13.7513 12.1569 13.4713 11.8769 13.1263 11.8769H6.89813C6.55376 11.8769 6.27438 12.155 6.27313 12.5L6.25376 18.7431H3.13563V8.88251C3.13563 8.83126 3.12751 8.78126 3.11563 8.73313L10.025 1.53313L16.8888 8.72501C16.8756 8.77563 16.8663 8.82813 16.8663 8.88251L16.8656 8.88313Z" fill="#1F942A"/>
</svg>
